<svg width="100" height="43" viewBox="0 0 100 43" fill="none" xmlns="http://www.w3.org/2000/svg">
<g clip-path="url(#clip0_29:39)">
<path d="M62.0532 19.1988C63.346 19.4256 64.4107 20.1058 65.1711 21.0884C65.3232 14.8148 69.8859 9.67499 75.8175 8.46561C76.2738 8.39003 76.8061 8.31444 77.2624 8.23886C77.4145 8.23886 77.6426 8.23886 77.7947 8.16327C79.7719 7.86093 81.3688 6.19804 81.3688 4.15722C81.3688 2.04082 79.6958 0.302349 77.6426 0.075592C77.1863 0.075592 76.8061 0.151178 76.3498 0.151178C75.7415 0.226764 75.2091 0.302349 74.6008 0.377935C64.6388 2.19199 56.9582 10.8844 56.9582 21.3908C56.9582 21.542 56.9582 21.6175 56.9582 21.7687C57.8707 19.9547 59.924 18.8209 62.0532 19.1988Z" fill="#1B2745"/>
<path d="M99.9239 21.3908C99.9239 20.7861 99.924 20.1814 99.8479 19.5767C99.0114 9.29706 90.7985 1.1338 80.4563 0.151184C81.8251 1.05821 82.6616 2.7211 82.5095 4.45957C82.3574 6.12246 81.3688 7.55859 80 8.23886C86.1597 8.91914 91.1027 13.9078 91.711 20.0302C91.7871 20.4082 91.7871 20.7861 91.7871 21.2396C91.7871 21.3152 91.7871 21.3152 91.7871 21.3908C91.7871 21.6931 91.7871 21.9955 91.7871 22.2978C92.0152 24.3386 93.7643 25.9259 95.8935 25.9259C98.0228 25.9259 99.7719 24.3386 100 22.2978C100 22.1467 100 21.9955 100 21.8443C100 21.7687 100 21.7687 100 21.6931C99.9239 21.6175 99.9239 21.4664 99.9239 21.3908Z" fill="#3A4C83"/>
<path d="M71.1029 37.8685C71.4071 35.9788 72.7759 34.5427 74.5249 34.0136C70.4185 32.7287 67.1485 29.554 65.7797 25.4724C65.6276 25.0189 65.4755 24.4898 65.3995 23.9607C65.3995 23.7339 65.3234 23.4316 65.2474 23.2048C64.7911 21.6175 63.4223 20.3326 61.5972 20.1814C59.3158 20.0302 57.4147 21.6931 57.1865 23.9607C57.1865 24.1875 57.1865 24.4142 57.1865 24.641C57.1865 24.8677 57.2626 25.0945 57.3386 25.3212C57.4147 25.9259 57.5668 26.5306 57.7188 27.0597C59.696 34.1648 65.2474 39.7581 72.2436 41.7989C71.331 40.8163 70.8747 39.3802 71.1029 37.8685Z" fill="#4EA7DD"/>
<path d="M95.5133 27.0597C93.6122 26.9086 92.0913 25.6992 91.4829 24.1119C90.1901 30.0832 84.8669 34.6183 78.4791 34.6183C78.0228 34.6183 77.5665 34.6183 77.1103 34.5427C76.9582 34.5427 76.8061 34.4671 76.654 34.4671C76.654 34.4671 76.654 34.4671 76.5779 34.4671C74.3726 34.316 72.3954 35.9788 72.2433 38.1708C72.2433 38.322 72.2433 38.4732 72.2433 38.5488C72.3194 40.4384 73.6882 42.1013 75.5894 42.4792C75.7414 42.4792 75.8935 42.5548 76.0456 42.5548C76.1977 42.5548 76.2738 42.5548 76.4259 42.5548C76.2738 42.5548 76.1217 42.5548 76.0456 42.5548C76.8061 42.6304 77.5665 42.706 78.327 42.706C78.403 42.706 78.4791 42.706 78.5551 42.706C88.9734 42.706 97.7186 35.2986 99.6198 25.3968C98.5551 26.5306 97.1103 27.2109 95.5133 27.0597Z" fill="#4B74B7"/>
<path d="M5.24715 32.5775C3.95437 32.5775 2.88973 33.2578 2.20532 34.2404V33.2578H0V42.7816H2.28137V38.0197V37.9441V35.9788C2.6616 35.1474 3.4981 34.6183 4.48669 34.6183C5.77947 34.4671 6.84411 35.5253 6.84411 36.8859V39.3046V42.7816H8.82129V36.13C8.82129 34.1648 7.22434 32.5775 5.24715 32.5775Z" fill="white"/>
<path d="M21.597 39.3046C20.9886 40.2872 19.924 40.9675 18.7072 40.9675C18.0989 40.9675 17.5665 40.8163 17.0342 40.514L19.0875 38.3976L21.597 35.8277L22.9658 34.4671C22.5856 33.8624 22.0532 33.4089 21.4449 33.031C20.6084 32.5775 19.6958 32.2751 18.7072 32.2751C16.1977 32.2751 14.0684 34.0136 13.5361 36.4324C13.4601 36.8103 13.384 37.1882 13.384 37.5662C13.384 38.5488 13.6882 39.5314 14.1445 40.2872C14.5247 40.8919 15.057 41.421 15.6654 41.8745C16.5019 42.4792 17.5665 42.8572 18.7072 42.8572C20.7605 42.8572 22.5856 41.6478 23.4221 39.9849L21.597 39.3046ZM15.2852 37.5662C15.2852 37.415 15.2852 37.2638 15.2852 37.1126C15.5133 35.4497 16.9582 34.1648 18.6312 34.1648C19.0875 34.1648 19.6198 34.2404 20 34.4671L16.8061 37.6417L15.5133 38.9267C15.4373 38.5488 15.2852 38.0953 15.2852 37.5662Z" fill="white"/>
<path d="M35.3612 36.2812V34.1648H33.5361V31.6704L30.5703 31.5948V34.1648H28.8973V36.2812H30.6464V39.6069C30.6464 40.3628 30.9506 41.0431 31.4829 41.5722C32.0913 42.1013 32.7757 42.4792 33.6122 42.706H33.8403C34.0684 42.7815 34.2966 42.7815 34.5247 42.7815C34.7529 42.7815 35.4373 42.706 35.4373 42.706V40.3628C35.3612 40.3628 35.3612 40.3628 35.2852 40.3628C34.3726 40.3628 33.6122 39.5314 33.6122 38.6243V36.2812H35.3612Z" fill="white"/>
<path d="M39.8479 9.22147L47.4525 0H38.403L26.0837 15.1172L25.6274 15.7218L25.2472 16.1754C23.1939 13.3787 20.3042 11.2623 16.9582 10.1285L25.3232 0.0755858L0 0V7.18065H11.635L9.88593 9.29705L5.32319 14.966C5.09506 15.1927 5.01901 15.4195 5.01901 15.7974C5.01901 16.4021 5.55133 16.9312 6.1597 16.9312C6.31179 16.9312 6.38783 16.9312 6.46388 16.8556C6.61597 16.78 6.69202 16.7045 6.84411 16.6289C6.84411 16.6289 6.84411 16.6289 6.92015 16.6289C8.28897 15.9486 9.88593 15.5707 11.5589 15.5707C11.7871 15.5707 12.0913 15.5707 12.3194 15.5707C17.6426 15.9486 21.8251 20.257 21.9772 25.548H28.365L28.4411 25.4724C28.5932 21.9955 30.4183 19.0476 33.1559 17.2336C34.8289 16.1754 36.73 15.4951 38.8593 15.4951C44.6388 15.4951 49.2776 20.1058 49.2776 25.8503C49.2776 31.5949 44.6388 36.2056 38.8593 36.2056C38.7072 36.2056 38.4791 36.2056 38.327 36.2056V42.5548C38.4791 42.5548 38.7072 42.5548 38.8593 42.5548C48.1369 42.5548 55.6654 35.0718 55.6654 25.8503C55.8175 17.0068 48.7453 9.67498 39.8479 9.22147Z" fill="white"/>
</g>
<defs>
<clipPath id="clip0_29:39">
<rect width="100" height="42.8571" fill="white"/>
</clipPath>
</defs>
</svg>
