<svg width="72" height="72" viewBox="0 0 72 72" fill="none" xmlns="http://www.w3.org/2000/svg">
<path d="M36 8.57143C38.7279 8.57143 41.3442 9.6551 43.2731 11.584C45.202 13.513 46.2857 16.1292 46.2857 18.8571V25.7143C46.2857 28.4422 45.202 31.0584 43.2731 32.9874C41.3442 34.9163 38.7279 36 36 36C33.2721 36 30.6558 34.9163 28.7269 32.9874C26.798 31.0584 25.7143 28.4422 25.7143 25.7143V18.8571C25.7143 16.1292 26.798 13.513 28.7269 11.584C30.6558 9.6551 33.2721 8.57143 36 8.57143V8.57143ZM60 56.5714V54.0754C60 43.1486 47.3623 36 36 36C24.6377 36 12 43.1486 12 54.0754V56.5714C12 57.4807 12.3612 58.3528 13.0042 58.9958C13.6472 59.6388 14.5193 60 15.4286 60H56.5714C57.4807 60 58.3528 59.6388 58.9958 58.9958C59.6388 58.3528 60 57.4807 60 56.5714Z" stroke="#489FDF" stroke-width="4" stroke-linecap="round" stroke-linejoin="round"/>
</svg>
