<svg width="72" height="72" viewBox="0 0 72 72" fill="none" xmlns="http://www.w3.org/2000/svg">
<path d="M67.5 59.0577H64.6858V29.2452C64.6846 28.2013 64.2694 27.2005 63.5312 26.4623C62.7931 25.7241 61.7922 25.3089 60.7483 25.3077H42.1858V11.2452C42.1846 10.2013 41.7694 9.20047 41.0312 8.4623C40.2931 7.72413 39.2922 7.30891 38.2483 7.30772H11.2483C10.2044 7.30891 9.20356 7.72413 8.46539 8.4623C7.72723 9.20047 7.312 10.2013 7.31081 11.2452V59.0577H4.5C4.05245 59.0577 3.62322 59.2355 3.30676 59.552C2.99029 59.8684 2.8125 60.2977 2.8125 60.7452C2.8125 61.1928 2.99029 61.622 3.30676 61.9385C3.62322 62.2549 4.05245 62.4327 4.5 62.4327H67.5C67.9476 62.4327 68.3768 62.2549 68.6932 61.9385C69.0097 61.622 69.1875 61.1928 69.1875 60.7452C69.1875 60.2977 69.0097 59.8684 68.6932 59.552C68.3768 59.2355 67.9476 59.0577 67.5 59.0577ZM60.7483 28.6827C60.8975 28.6829 61.0404 28.7422 61.1459 28.8476C61.2514 28.9531 61.3107 29.0961 61.3108 29.2452V59.0577H42.1858V28.6827H60.7483ZM10.6858 11.2452C10.686 11.0961 10.7453 10.9531 10.8507 10.8476C10.9562 10.7422 11.0992 10.6829 11.2483 10.6827H38.2483C38.3975 10.6829 38.5404 10.7422 38.6459 10.8476C38.7514 10.9531 38.8107 11.0961 38.8108 11.2452V59.0577H10.6858V11.2452ZM16.3108 20.2452C16.3108 19.7977 16.4886 19.3684 16.8051 19.052C17.1215 18.7355 17.5508 18.5577 17.9983 18.5577H26.9983C27.4459 18.5577 27.8751 18.7355 28.1916 19.052C28.508 19.3684 28.6858 19.7977 28.6858 20.2452C28.6858 20.6928 28.508 21.122 28.1916 21.4385C27.8751 21.7549 27.4459 21.9327 26.9983 21.9327H17.9983C17.5508 21.9327 17.1215 21.7549 16.8051 21.4385C16.4886 21.122 16.3108 20.6928 16.3108 20.2452ZM33.1858 38.2452C33.1858 38.6928 33.008 39.122 32.6916 39.4385C32.3751 39.7549 31.9459 39.9327 31.4983 39.9327H22.4983C22.0508 39.9327 21.6215 39.7549 21.3051 39.4385C20.9886 39.122 20.8108 38.6928 20.8108 38.2452C20.8108 37.7977 20.9886 37.3684 21.3051 37.052C21.6215 36.7355 22.0508 36.5577 22.4983 36.5577H31.4983C31.9459 36.5577 32.3751 36.7355 32.6916 37.052C33.008 37.3684 33.1858 37.7977 33.1858 38.2452ZM28.6858 49.4952C28.6858 49.9428 28.508 50.372 28.1916 50.6885C27.8751 51.0049 27.4459 51.1827 26.9983 51.1827H17.9983C17.5508 51.1827 17.1215 51.0049 16.8051 50.6885C16.4886 50.372 16.3108 49.9428 16.3108 49.4952C16.3108 49.0477 16.4886 48.6184 16.8051 48.302C17.1215 47.9855 17.5508 47.8077 17.9983 47.8077H26.9983C27.4459 47.8077 27.8751 47.9855 28.1916 48.302C28.508 48.6184 28.6858 49.0477 28.6858 49.4952ZM55.6858 49.4952C55.6858 49.9428 55.508 50.372 55.1916 50.6885C54.8751 51.0049 54.4459 51.1827 53.9983 51.1827H49.4983C49.0508 51.1827 48.6215 51.0049 48.3051 50.6885C47.9886 50.372 47.8108 49.9428 47.8108 49.4952C47.8108 49.0477 47.9886 48.6184 48.3051 48.302C48.6215 47.9855 49.0508 47.8077 49.4983 47.8077H53.9983C54.4459 47.8077 54.8751 47.9855 55.1916 48.302C55.508 48.6184 55.6858 49.0477 55.6858 49.4952ZM47.8108 38.2452C47.8108 37.7977 47.9886 37.3684 48.3051 37.052C48.6215 36.7355 49.0508 36.5577 49.4983 36.5577H53.9983C54.4459 36.5577 54.8751 36.7355 55.1916 37.052C55.508 37.3684 55.6858 37.7977 55.6858 38.2452C55.6858 38.6928 55.508 39.122 55.1916 39.4385C54.8751 39.7549 54.4459 39.9327 53.9983 39.9327H49.4983C49.0508 39.9327 48.6215 39.7549 48.3051 39.4385C47.9886 39.122 47.8108 38.6928 47.8108 38.2452Z" fill="#517DB9"/>
</svg>
