<svg width="20" height="20" viewBox="0 0 20 20" fill="none" xmlns="http://www.w3.org/2000/svg">
<path d="M13.6337 11.6667C13.7003 11.1167 13.7503 10.5667 13.7503 9.99999C13.7503 9.43332 13.7003 8.88332 13.6337 8.33332H16.4503C16.5837 8.86666 16.667 9.42499 16.667 9.99999C16.667 10.575 16.5837 11.1333 16.4503 11.6667H13.6337ZM12.1587 16.3C12.6587 15.375 13.042 14.375 13.3087 13.3333H15.767C14.9596 14.7236 13.6788 15.7767 12.1587 16.3ZM11.9503 11.6667H8.05033C7.96699 11.1167 7.91699 10.5667 7.91699 9.99999C7.91699 9.43332 7.96699 8.87499 8.05033 8.33332H11.9503C12.0253 8.87499 12.0837 9.43332 12.0837 9.99999C12.0837 10.5667 12.0253 11.1167 11.9503 11.6667ZM10.0003 16.6333C9.30866 15.6333 8.75033 14.525 8.40866 13.3333H11.592C11.2503 14.525 10.692 15.6333 10.0003 16.6333ZM6.66699 6.66666H4.23366C5.03271 5.27267 6.31266 4.2179 7.83366 3.69999C7.33366 4.62499 6.95866 5.62499 6.66699 6.66666ZM4.23366 13.3333H6.66699C6.95866 14.375 7.33366 15.375 7.83366 16.3C6.31585 15.7764 5.0377 14.7231 4.23366 13.3333ZM3.55033 11.6667C3.41699 11.1333 3.33366 10.575 3.33366 9.99999C3.33366 9.42499 3.41699 8.86666 3.55033 8.33332H6.36699C6.30033 8.88332 6.25033 9.43332 6.25033 9.99999C6.25033 10.5667 6.30033 11.1167 6.36699 11.6667H3.55033ZM10.0003 3.35832C10.692 4.35832 11.2503 5.47499 11.592 6.66666H8.40866C8.75033 5.47499 9.30866 4.35832 10.0003 3.35832ZM15.767 6.66666H13.3087C13.0478 5.63454 12.6616 4.63824 12.1587 3.69999C13.692 4.22499 14.967 5.28332 15.767 6.66666ZM10.0003 1.66666C5.39199 1.66666 1.66699 5.41666 1.66699 9.99999C1.66699 12.2101 2.54497 14.3297 4.10777 15.8925C4.88159 16.6664 5.80025 17.2802 6.8113 17.699C7.82234 18.1178 8.90598 18.3333 10.0003 18.3333C12.2105 18.3333 14.3301 17.4553 15.8929 15.8925C17.4557 14.3297 18.3337 12.2101 18.3337 9.99999C18.3337 8.90564 18.1181 7.82201 17.6993 6.81096C17.2805 5.79991 16.6667 4.88125 15.8929 4.10743C15.1191 3.33361 14.2004 2.71978 13.1894 2.30099C12.1783 1.8822 11.0947 1.66666 10.0003 1.66666Z" fill="white"/>
</svg>
