<svg width="20" height="20" viewBox="0 0 20 20" fill="none" xmlns="http://www.w3.org/2000/svg">
<path d="M12.7068 13.425L14.1068 12.025C14.2953 11.8388 14.5339 11.7113 14.7935 11.658C15.0531 11.6048 15.3226 11.628 15.5693 11.725L17.2755 12.4062C17.5248 12.5074 17.7385 12.6801 17.8898 12.9026C18.041 13.125 18.1231 13.3873 18.1255 13.6562V16.7812C18.1241 16.9642 18.0856 17.145 18.0124 17.3128C17.9393 17.4805 17.8329 17.6317 17.6998 17.7572C17.5666 17.8828 17.4095 17.9801 17.2377 18.0433C17.066 18.1065 16.8833 18.1343 16.7005 18.125C4.74426 17.3812 2.33176 7.25624 1.87551 3.38124C1.85433 3.19096 1.87368 2.99834 1.93229 2.81606C1.9909 2.63379 2.08744 2.46599 2.21555 2.32371C2.34367 2.18142 2.50046 2.06787 2.67561 1.99053C2.85076 1.9132 3.0403 1.87382 3.23176 1.875H6.25051C6.51989 1.87579 6.78287 1.95716 7.00563 2.10864C7.22839 2.26011 7.40074 2.47477 7.50051 2.725L8.18176 4.43125C8.28192 4.67691 8.30747 4.94665 8.25523 5.20675C8.20299 5.46686 8.07526 5.70581 7.88801 5.89375L6.48801 7.29375C6.48801 7.29375 7.29426 12.75 12.7068 13.425Z" fill="white"/>
</svg>
