<svg width="24" height="24" viewBox="0 0 24 24" fill="none" xmlns="http://www.w3.org/2000/svg">
<path fill-rule="evenodd" clip-rule="evenodd" d="M22.1593 5.22749L20.9893 4.95149L17.8273 8.09549L16.0363 6.27149L19.1203 3.03599L18.8503 1.84799C18.1986 1.62996 17.517 1.51458 16.8298 1.50599C16.0802 1.49446 15.3362 1.63743 14.6443 1.92599C13.9762 2.2284 13.3723 2.65612 12.8653 3.18599C12.3009 3.7206 11.854 4.3668 11.5528 5.08349C10.973 6.50981 10.973 8.10616 11.5528 9.53249C8.42565 12.609 5.33889 15.7262 2.2933 18.8835C1.9783 19.296 1.8283 19.8105 1.8673 20.328C1.89803 20.8846 2.14835 21.4062 2.5633 21.7785C2.7493 21.981 2.9713 22.149 3.2188 22.2705C3.4738 22.383 3.7483 22.4475 4.0258 22.461C4.4998 22.452 4.9543 22.272 5.3068 21.9555C7.6288 19.77 12.0778 15.2805 14.6053 12.6495C15.2908 12.9405 16.0273 13.0905 16.7713 13.089C17.5202 13.0884 18.2614 12.9377 18.9511 12.6458C19.6408 12.3539 20.265 11.9267 20.7868 11.3895C21.8586 10.2964 22.4573 8.82539 22.4533 7.29449C22.4706 6.59395 22.3713 5.89541 22.1593 5.22749ZM4.3993 20.892C4.34156 20.9433 4.27197 20.9793 4.1968 20.997C4.12285 21.0098 4.04725 21.0098 3.9733 20.997C3.89576 20.9852 3.82191 20.9559 3.7573 20.9115C3.68796 20.8709 3.62933 20.8143 3.5863 20.7465C3.3763 20.532 3.1798 20.124 3.3763 19.8945C5.4313 17.709 9.6628 13.437 12.3088 10.8255C12.4588 11.0235 12.6238 11.2125 12.8008 11.3895C12.9778 11.574 13.1683 11.745 13.3708 11.901C10.8118 14.526 6.6388 18.747 4.4008 20.892H4.3993ZM21.0763 7.29449C21.0793 8.44199 20.6323 9.54449 19.8283 10.3665C19.026 11.1535 17.9469 11.5944 16.823 11.5944C15.6992 11.5944 14.6201 11.1535 13.8178 10.3665C13.2298 9.75283 12.8281 8.98482 12.6595 8.1518C12.4908 7.31879 12.5622 6.45502 12.8653 5.66099C13.067 5.12059 13.38 4.62854 13.7838 4.21668C14.1877 3.80482 14.6735 3.4823 15.2098 3.26999C15.719 3.05685 16.2658 2.94771 16.8178 2.94899H17.1988L14.4733 5.75849V6.80249L17.3158 9.63149H18.3058L21.0763 6.90749V7.29449ZM4.8598 10.032H7.1563L8.2138 11.1075L9.2308 10.0965L8.2333 9.07949V9.01499L8.3188 6.54149L7.9888 5.88599L3.6988 3.06299L2.8123 3.16199L1.5658 4.43549L1.4668 5.33399L4.2238 9.71099L4.8598 10.0335V10.032ZM3.4423 4.58399L6.9133 6.86999L6.8548 8.55449H5.2408L3.0028 5.01149L3.4423 4.58399ZM14.0998 15.024L15.1108 14.0145L19.7698 18.792C20.1622 19.2044 20.3811 19.7519 20.3811 20.3212C20.3811 20.8905 20.1622 21.438 19.7698 21.8505C19.4747 22.1534 19.0953 22.3605 18.6809 22.4448C18.2664 22.5291 17.8363 22.4866 17.4463 22.323C17.1974 22.2126 16.9742 22.0517 16.7908 21.8505L12.0778 17.046L13.0963 16.029L17.7943 20.82C17.8575 20.8897 17.9361 20.9436 18.0238 20.9775C18.1964 21.0476 18.3896 21.0476 18.5623 20.9775C18.65 20.9436 18.7286 20.8896 18.7918 20.82C18.8575 20.7549 18.9086 20.6767 18.9418 20.5905C18.9762 20.5025 18.9945 20.409 18.9958 20.3145C18.9943 20.2201 18.9765 20.1268 18.9433 20.0385C18.9101 19.9522 18.859 19.874 18.7933 19.809L14.0998 15.024Z" fill="#517DB9"/>
</svg>
