<svg width="300" height="255" viewBox="0 0 300 255" fill="none" xmlns="http://www.w3.org/2000/svg">
<path fill-rule="evenodd" clip-rule="evenodd" d="M299.276 164.831L291.314 164.05C291.768 159.43 292 154.743 292 150C292 145.257 291.768 140.57 291.314 135.951L299.276 135.169C299.755 140.048 300 144.995 300 150C300 155.005 299.755 159.952 299.276 164.831ZM298.837 131.227L290.898 132.218C289.719 122.775 287.614 113.624 284.676 104.855L292.261 102.314C295.366 111.581 297.591 121.252 298.837 131.227ZM290.955 98.5797L283.439 101.322C280.202 92.4499 276.104 83.9897 271.245 76.0424L278.071 71.8696C283.203 80.2646 287.533 89.2035 290.955 98.5797ZM275.96 68.517L269.247 72.8686C264.134 64.9814 258.259 57.6321 251.726 50.9255L257.457 45.3433C264.355 52.4251 270.56 60.1863 275.96 68.517ZM254.657 42.543L249.075 48.2736C242.368 41.7407 235.019 35.8659 227.131 30.7532L231.483 24.0402C239.814 29.4405 247.575 35.6447 254.657 42.543ZM228.13 21.9293L223.958 28.7548C216.01 23.8961 207.55 19.7981 198.678 16.5607L201.42 9.04541C210.796 12.4667 219.735 16.7969 228.13 21.9293ZM197.686 7.73883L195.145 15.3244C186.376 12.3864 177.225 10.2807 167.782 9.10175L168.773 1.16338C178.748 2.40883 188.419 4.63374 197.686 7.73883ZM164.831 0.72394L164.05 8.68568C159.43 8.23229 154.743 8 150 8C145.257 8 140.57 8.23229 135.951 8.68568L135.169 0.723937C140.048 0.245095 144.995 0 150 0C155.005 0 159.952 0.245096 164.831 0.72394ZM131.227 1.16338L132.218 9.10175C122.775 10.2807 113.624 12.3864 104.855 15.3243L102.314 7.73882C111.581 4.63373 121.252 2.40882 131.227 1.16338ZM98.5797 9.04541L101.322 16.5607C92.4499 19.7981 83.9897 23.8961 76.0424 28.7548L71.8696 21.9293C80.2646 16.7969 89.2035 12.4667 98.5797 9.04541ZM68.517 24.0402L72.8686 30.7532C64.9814 35.8659 57.6321 41.7407 50.9255 48.2736L45.3433 42.543C52.4251 35.6447 60.1863 29.4404 68.517 24.0402ZM42.543 45.3433L48.2736 50.9254C41.7407 57.6321 35.8659 64.9814 30.7532 72.8685L24.0402 68.517C29.4405 60.1862 35.6447 52.425 42.543 45.3433ZM21.9293 71.8695L28.7548 76.0424C23.8961 83.9897 19.7981 92.4499 16.5607 101.322L9.04541 98.5797C12.4667 89.2035 16.7969 80.2646 21.9293 71.8695ZM7.73883 102.314L15.3244 104.855C12.3864 113.624 10.2807 122.775 9.10175 132.218L1.16338 131.227C2.40883 121.252 4.63374 111.581 7.73883 102.314ZM0.72394 135.169C0.245096 140.048 0 144.995 0 150C0 155.005 0.245095 159.952 0.723937 164.831L8.68568 164.049C8.23229 159.43 8 154.743 8 150C8 145.257 8.23229 140.57 8.68568 135.95L0.72394 135.169ZM1.16338 168.773L9.10175 167.782C10.2807 177.225 12.3864 186.376 15.3243 195.145L7.73882 197.686C4.63373 188.419 2.40882 178.748 1.16338 168.773ZM9.04541 201.42L16.5607 198.678C19.7981 207.55 23.8961 216.01 28.7548 223.958L21.9293 228.13C16.7969 219.735 12.4667 210.796 9.04541 201.42ZM24.0402 231.483L30.7532 227.131C35.8659 235.019 41.7407 242.368 48.2736 249.075L42.543 254.657C35.6447 247.575 29.4404 239.814 24.0402 231.483ZM257.457 254.657L251.726 249.075C258.259 242.368 264.134 235.019 269.247 227.131L275.96 231.483C270.56 239.814 264.355 247.575 257.457 254.657ZM278.071 228.13L271.245 223.958C276.104 216.01 280.202 207.55 283.439 198.678L290.955 201.42C287.533 210.796 283.203 219.735 278.071 228.13ZM292.261 197.686L284.676 195.145C287.614 186.376 289.719 177.225 290.898 167.782L298.837 168.773C297.591 178.748 295.366 188.419 292.261 197.686Z" fill="#DADADA"/>
<path fill-rule="evenodd" clip-rule="evenodd" d="M113.144 16.9766L118.473 36.2535C98.918 41.6596 81.3731 51.9904 67.2698 65.859L53.2469 51.5987C69.717 35.4027 90.2346 23.31 113.144 16.9766ZM51.5986 53.2469L65.8589 67.2699C51.9904 81.3732 41.6595 98.9181 36.2534 118.473L16.9765 113.144C23.3099 90.2347 35.4026 69.717 51.5986 53.2469ZM16.3734 115.4C13.5186 126.457 12 138.051 12 150C12 161.949 13.5186 173.543 16.3734 184.6L35.7383 179.6C33.3017 170.163 32 160.248 32 150C32 139.752 33.3017 129.838 35.7383 120.4L16.3734 115.4ZM16.9765 186.856L36.2534 181.527C41.6595 201.082 51.9904 218.627 65.8589 232.73L51.5986 246.753C35.4026 230.283 23.3099 209.765 16.9765 186.856Z" fill="url(#paint0_linear_269_163)"/>
<path d="M130.614 121.12C135.03 121.84 138.414 123.496 140.766 126.088C143.118 128.632 144.294 131.8 144.294 135.592C144.294 138.52 143.526 141.232 141.99 143.728C140.454 146.176 138.102 148.144 134.934 149.632C131.814 151.12 127.974 151.864 123.414 151.864C119.862 151.864 116.358 151.408 112.902 150.496C109.494 149.536 106.59 148.192 104.19 146.464L108.726 137.536C110.646 138.976 112.854 140.104 115.35 140.92C117.894 141.688 120.486 142.072 123.126 142.072C126.054 142.072 128.358 141.52 130.038 140.416C131.718 139.264 132.558 137.656 132.558 135.592C132.558 131.464 129.414 129.4 123.126 129.4H117.798V121.696L128.166 109.96H106.71V100.6H141.99V108.16L130.614 121.12ZM171.279 151.864C167.103 151.864 163.383 150.832 160.119 148.768C156.855 146.704 154.287 143.728 152.415 139.84C150.591 135.904 149.679 131.224 149.679 125.8C149.679 120.376 150.591 115.72 152.415 111.832C154.287 107.896 156.855 104.896 160.119 102.832C163.383 100.768 167.103 99.736 171.279 99.736C175.455 99.736 179.175 100.768 182.439 102.832C185.703 104.896 188.247 107.896 190.071 111.832C191.943 115.72 192.879 120.376 192.879 125.8C192.879 131.224 191.943 135.904 190.071 139.84C188.247 143.728 185.703 146.704 182.439 148.768C179.175 150.832 175.455 151.864 171.279 151.864ZM171.279 142C174.351 142 176.751 140.68 178.479 138.04C180.255 135.4 181.143 131.32 181.143 125.8C181.143 120.28 180.255 116.2 178.479 113.56C176.751 110.92 174.351 109.6 171.279 109.6C168.255 109.6 165.855 110.92 164.079 113.56C162.351 116.2 161.487 120.28 161.487 125.8C161.487 131.32 162.351 135.4 164.079 138.04C165.855 140.68 168.255 142 171.279 142Z" fill="#3D4E80"/>
<path opacity="0.3" d="M127.644 169V197H124.804V174.6L113.804 193.44H112.404L101.404 174.72V197H98.5639V169H101.004L113.164 189.76L125.204 169H127.644ZM147.007 175.8C148.98 175.8 150.767 176.253 152.367 177.16C153.967 178.04 155.22 179.293 156.127 180.92C157.034 182.547 157.487 184.4 157.487 186.48C157.487 188.56 157.034 190.413 156.127 192.04C155.22 193.667 153.967 194.933 152.367 195.84C150.767 196.747 148.98 197.2 147.007 197.2C145.247 197.2 143.66 196.827 142.247 196.08C140.86 195.333 139.74 194.253 138.887 192.84V197H136.167V167.32H139.007V179.96C139.887 178.6 141.007 177.573 142.367 176.88C143.754 176.16 145.3 175.8 147.007 175.8ZM146.807 194.68C148.274 194.68 149.607 194.347 150.807 193.68C152.007 192.987 152.94 192.013 153.607 190.76C154.3 189.507 154.647 188.08 154.647 186.48C154.647 184.88 154.3 183.453 153.607 182.2C152.94 180.947 152.007 179.987 150.807 179.32C149.607 178.627 148.274 178.28 146.807 178.28C145.314 178.28 143.967 178.627 142.767 179.32C141.594 179.987 140.66 180.947 139.967 182.2C139.3 183.453 138.967 184.88 138.967 186.48C138.967 188.08 139.3 189.507 139.967 190.76C140.66 192.013 141.594 192.987 142.767 193.68C143.967 194.347 145.314 194.68 146.807 194.68ZM174.116 175.8C176.09 175.8 177.876 176.253 179.476 177.16C181.076 178.04 182.33 179.293 183.236 180.92C184.143 182.547 184.596 184.4 184.596 186.48C184.596 188.587 184.143 190.453 183.236 192.08C182.33 193.707 181.076 194.973 179.476 195.88C177.903 196.76 176.116 197.2 174.116 197.2C172.41 197.2 170.863 196.853 169.476 196.16C168.116 195.44 166.996 194.4 166.116 193.04V204.76H163.276V175.96H165.996V180.12C166.85 178.733 167.97 177.667 169.356 176.92C170.77 176.173 172.356 175.8 174.116 175.8ZM173.916 194.68C175.383 194.68 176.716 194.347 177.916 193.68C179.116 192.987 180.05 192.013 180.716 190.76C181.41 189.507 181.756 188.08 181.756 186.48C181.756 184.88 181.41 183.467 180.716 182.24C180.05 180.987 179.116 180.013 177.916 179.32C176.716 178.627 175.383 178.28 173.916 178.28C172.423 178.28 171.076 178.627 169.876 179.32C168.703 180.013 167.77 180.987 167.076 182.24C166.41 183.467 166.076 184.88 166.076 186.48C166.076 188.08 166.41 189.507 167.076 190.76C167.77 192.013 168.703 192.987 169.876 193.68C171.076 194.347 172.423 194.68 173.916 194.68ZM196.026 197.2C194.319 197.2 192.679 196.96 191.106 196.48C189.559 195.973 188.346 195.347 187.466 194.6L188.746 192.36C189.626 193.053 190.732 193.627 192.066 194.08C193.399 194.507 194.786 194.72 196.226 194.72C198.146 194.72 199.559 194.427 200.466 193.84C201.399 193.227 201.866 192.373 201.866 191.28C201.866 190.507 201.612 189.907 201.106 189.48C200.599 189.027 199.959 188.693 199.186 188.48C198.412 188.24 197.386 188.013 196.106 187.8C194.399 187.48 193.026 187.16 191.986 186.84C190.946 186.493 190.052 185.92 189.306 185.12C188.586 184.32 188.226 183.213 188.226 181.8C188.226 180.04 188.959 178.6 190.426 177.48C191.892 176.36 193.932 175.8 196.546 175.8C197.906 175.8 199.266 175.987 200.626 176.36C201.986 176.707 203.106 177.173 203.986 177.76L202.746 180.04C201.012 178.84 198.946 178.24 196.546 178.24C194.732 178.24 193.359 178.56 192.426 179.2C191.519 179.84 191.066 180.68 191.066 181.72C191.066 182.52 191.319 183.16 191.826 183.64C192.359 184.12 193.012 184.48 193.786 184.72C194.559 184.933 195.626 185.16 196.986 185.4C198.666 185.72 200.012 186.04 201.026 186.36C202.039 186.68 202.906 187.227 203.626 188C204.346 188.773 204.706 189.84 204.706 191.2C204.706 193.04 203.932 194.507 202.386 195.6C200.866 196.667 198.746 197.2 196.026 197.2Z" fill="#5F5F5F"/>
<defs>
<linearGradient id="paint0_linear_269_163" x1="12" y1="150" x2="288" y2="150" gradientUnits="userSpaceOnUse">
<stop stop-color="#517DB9"/>
<stop offset="1" stop-color="#489FDF"/>
</linearGradient>
</defs>
</svg>
